<mxfile host="app.diagrams.net" modified="2020-11-03T07:42:50.182Z" agent="5.0 (Windows NT 10.0; Win64; x64) AppleWebKit/537.36 (KHTML, like Gecko) Chrome/86.0.4240.111 Safari/537.36 Edg/86.0.622.56" etag="O3pKZ8laxsW2x1Nqi3kv" version="13.8.8" type="github">
  <diagram name="Page-1" id="e7e014a7-5840-1c2e-5031-d8a46d1fe8dd">
    <mxGraphModel dx="1422" dy="794" grid="1" gridSize="10" guides="1" tooltips="1" connect="1" arrows="1" fold="1" page="1" pageScale="1" pageWidth="1169" pageHeight="826" background="#ffffff" math="0" shadow="0">
      <root>
        <mxCell id="0" />
        <mxCell id="1" parent="0" />
        <mxCell id="2" value="User" style="swimlane;whiteSpace=wrap" parent="1" vertex="1">
          <mxGeometry x="164.5" y="128" width="280" height="570" as="geometry" />
        </mxCell>
        <mxCell id="7" value="User opens app" style="rounded=1;" parent="2" vertex="1">
          <mxGeometry x="60.5" y="52" width="110" height="50" as="geometry" />
        </mxCell>
        <mxCell id="EKppqHnXHJ_BAVQ4IP0A-54" value="enters login data" style="rounded=1;whiteSpace=wrap;html=1;" vertex="1" parent="2">
          <mxGeometry x="60.5" y="222" width="109.5" height="52" as="geometry" />
        </mxCell>
        <mxCell id="3" value="System" style="swimlane;whiteSpace=wrap;startSize=23;" parent="1" vertex="1">
          <mxGeometry x="450" y="128" width="280" height="570" as="geometry" />
        </mxCell>
        <mxCell id="15" value="fetches data&#xa;Â from database" style="rounded=1;" parent="3" vertex="1">
          <mxGeometry x="95" y="52" width="105.5" height="50" as="geometry" />
        </mxCell>
        <mxCell id="EKppqHnXHJ_BAVQ4IP0A-44" value="Auto Login" style="rhombus;whiteSpace=wrap;html=1;rounded=1;" vertex="1" parent="3">
          <mxGeometry x="95" y="142" width="80" height="80" as="geometry" />
        </mxCell>
        <mxCell id="EKppqHnXHJ_BAVQ4IP0A-58" value="Validate data" style="rounded=1;whiteSpace=wrap;html=1;" vertex="1" parent="3">
          <mxGeometry x="84.5" y="302" width="100" height="52" as="geometry" />
        </mxCell>
        <mxCell id="EKppqHnXHJ_BAVQ4IP0A-59" value="successful" style="rhombus;whiteSpace=wrap;html=1;rounded=1;" vertex="1" parent="3">
          <mxGeometry x="95.5" y="392" width="79.5" height="80" as="geometry" />
        </mxCell>
        <mxCell id="EKppqHnXHJ_BAVQ4IP0A-69" value="" style="endArrow=none;html=1;exitX=0.5;exitY=0;exitDx=0;exitDy=0;entryX=0.5;entryY=1;entryDx=0;entryDy=0;" edge="1" parent="3" source="EKppqHnXHJ_BAVQ4IP0A-59" target="EKppqHnXHJ_BAVQ4IP0A-58">
          <mxGeometry width="50" height="50" relative="1" as="geometry">
            <mxPoint x="-309.5" y="303.28932188134524" as="sourcePoint" />
            <mxPoint x="590.5" y="509.28932188134524" as="targetPoint" />
          </mxGeometry>
        </mxCell>
        <mxCell id="EKppqHnXHJ_BAVQ4IP0A-74" value="No" style="text;html=1;strokeColor=none;fillColor=none;align=center;verticalAlign=middle;whiteSpace=wrap;rounded=0;" vertex="1" parent="3">
          <mxGeometry x="220" y="412" width="40" height="20" as="geometry" />
        </mxCell>
        <mxCell id="EKppqHnXHJ_BAVQ4IP0A-77" value="" style="endArrow=none;html=1;exitX=0.5;exitY=0;exitDx=0;exitDy=0;entryX=0.37;entryY=0.98;entryDx=0;entryDy=0;entryPerimeter=0;" edge="1" parent="3" source="EKppqHnXHJ_BAVQ4IP0A-44" target="15">
          <mxGeometry width="50" height="50" relative="1" as="geometry">
            <mxPoint x="120" y="152" as="sourcePoint" />
            <mxPoint x="170" y="102" as="targetPoint" />
          </mxGeometry>
        </mxCell>
        <mxCell id="EKppqHnXHJ_BAVQ4IP0A-47" value="No" style="text;html=1;align=center;verticalAlign=middle;resizable=0;points=[];autosize=1;" vertex="1" parent="3">
          <mxGeometry x="230" y="162" width="30" height="20" as="geometry" />
        </mxCell>
        <mxCell id="EKppqHnXHJ_BAVQ4IP0A-79" value="open account" style="rounded=1;whiteSpace=wrap;html=1;" vertex="1" parent="3">
          <mxGeometry x="84.5" y="502" width="120" height="60" as="geometry" />
        </mxCell>
        <mxCell id="EKppqHnXHJ_BAVQ4IP0A-81" value="" style="endArrow=none;html=1;exitX=0.433;exitY=0.017;exitDx=0;exitDy=0;exitPerimeter=0;" edge="1" parent="3" source="EKppqHnXHJ_BAVQ4IP0A-79" target="EKppqHnXHJ_BAVQ4IP0A-59">
          <mxGeometry width="50" height="50" relative="1" as="geometry">
            <mxPoint x="120" y="512" as="sourcePoint" />
            <mxPoint x="170" y="462" as="targetPoint" />
          </mxGeometry>
        </mxCell>
        <mxCell id="EKppqHnXHJ_BAVQ4IP0A-82" value="Yes" style="text;html=1;strokeColor=none;fillColor=none;align=center;verticalAlign=middle;whiteSpace=wrap;rounded=0;" vertex="1" parent="3">
          <mxGeometry x="96" y="472" width="40" height="20" as="geometry" />
        </mxCell>
        <mxCell id="4" value="UI" style="swimlane;whiteSpace=wrap;startSize=23;" parent="1" vertex="1">
          <mxGeometry x="724.5" y="128" width="280" height="570" as="geometry" />
        </mxCell>
        <mxCell id="EKppqHnXHJ_BAVQ4IP0A-43" value="displays login screen" style="rounded=1;" vertex="1" parent="4">
          <mxGeometry x="95.5" y="212" width="110" height="50" as="geometry" />
        </mxCell>
        <mxCell id="EKppqHnXHJ_BAVQ4IP0A-70" value="Show error message" style="rounded=1;whiteSpace=wrap;html=1;" vertex="1" parent="4">
          <mxGeometry x="95.5" y="402" width="120" height="60" as="geometry" />
        </mxCell>
        <mxCell id="EKppqHnXHJ_BAVQ4IP0A-80" value="display account&lt;br&gt;&amp;nbsp;home screen" style="rounded=1;whiteSpace=wrap;html=1;" vertex="1" parent="4">
          <mxGeometry x="95.5" y="502" width="120" height="60" as="geometry" />
        </mxCell>
        <mxCell id="EKppqHnXHJ_BAVQ4IP0A-46" style="edgeStyle=orthogonalEdgeStyle;rounded=0;orthogonalLoop=1;jettySize=auto;html=1;entryX=0.5;entryY=0;entryDx=0;entryDy=0;" edge="1" parent="1" source="EKppqHnXHJ_BAVQ4IP0A-44" target="EKppqHnXHJ_BAVQ4IP0A-43">
          <mxGeometry relative="1" as="geometry">
            <mxPoint x="790" y="360" as="targetPoint" />
          </mxGeometry>
        </mxCell>
        <mxCell id="EKppqHnXHJ_BAVQ4IP0A-52" value="" style="endArrow=none;html=1;exitX=1;exitY=0.5;exitDx=0;exitDy=0;entryX=0;entryY=0.5;entryDx=0;entryDy=0;" edge="1" parent="1" source="7" target="15">
          <mxGeometry width="50" height="50" relative="1" as="geometry">
            <mxPoint x="330" y="250" as="sourcePoint" />
            <mxPoint x="380" y="200" as="targetPoint" />
          </mxGeometry>
        </mxCell>
        <mxCell id="EKppqHnXHJ_BAVQ4IP0A-56" value="" style="endArrow=none;html=1;exitX=1;exitY=0.25;exitDx=0;exitDy=0;entryX=0;entryY=0.5;entryDx=0;entryDy=0;" edge="1" parent="1" source="EKppqHnXHJ_BAVQ4IP0A-54" target="EKppqHnXHJ_BAVQ4IP0A-43">
          <mxGeometry width="50" height="50" relative="1" as="geometry">
            <mxPoint x="330" y="480" as="sourcePoint" />
            <mxPoint x="380" y="430" as="targetPoint" />
          </mxGeometry>
        </mxCell>
        <mxCell id="EKppqHnXHJ_BAVQ4IP0A-61" value="" style="endArrow=none;html=1;entryX=0.5;entryY=1;entryDx=0;entryDy=0;exitX=0;exitY=0.5;exitDx=0;exitDy=0;" edge="1" parent="1" source="EKppqHnXHJ_BAVQ4IP0A-58" target="EKppqHnXHJ_BAVQ4IP0A-54">
          <mxGeometry width="50" height="50" relative="1" as="geometry">
            <mxPoint x="280" y="540" as="sourcePoint" />
            <mxPoint x="310" y="470" as="targetPoint" />
            <Array as="points">
              <mxPoint x="280" y="460" />
            </Array>
          </mxGeometry>
        </mxCell>
        <mxCell id="EKppqHnXHJ_BAVQ4IP0A-72" value="" style="endArrow=none;html=1;exitX=1;exitY=0.5;exitDx=0;exitDy=0;entryX=0;entryY=0.5;entryDx=0;entryDy=0;" edge="1" parent="1" source="EKppqHnXHJ_BAVQ4IP0A-59" target="EKppqHnXHJ_BAVQ4IP0A-70">
          <mxGeometry width="50" height="50" relative="1" as="geometry">
            <mxPoint x="630" y="650" as="sourcePoint" />
            <mxPoint x="680" y="600" as="targetPoint" />
          </mxGeometry>
        </mxCell>
        <mxCell id="EKppqHnXHJ_BAVQ4IP0A-83" value="" style="endArrow=none;html=1;exitX=1;exitY=0.5;exitDx=0;exitDy=0;entryX=0;entryY=0.5;entryDx=0;entryDy=0;" edge="1" parent="1" source="EKppqHnXHJ_BAVQ4IP0A-79" target="EKppqHnXHJ_BAVQ4IP0A-80">
          <mxGeometry width="50" height="50" relative="1" as="geometry">
            <mxPoint x="650" y="690" as="sourcePoint" />
            <mxPoint x="700" y="640" as="targetPoint" />
          </mxGeometry>
        </mxCell>
        <mxCell id="EKppqHnXHJ_BAVQ4IP0A-84" value="" style="endArrow=none;html=1;exitX=0.5;exitY=0;exitDx=0;exitDy=0;" edge="1" parent="1" source="EKppqHnXHJ_BAVQ4IP0A-70">
          <mxGeometry width="50" height="50" relative="1" as="geometry">
            <mxPoint x="860" y="520" as="sourcePoint" />
            <mxPoint x="329" y="390" as="targetPoint" />
            <Array as="points">
              <mxPoint x="880" y="410" />
            </Array>
          </mxGeometry>
        </mxCell>
      </root>
    </mxGraphModel>
  </diagram>
</mxfile>
